<svg xmlns="http://www.w3.org/2000/svg" xmlns:xlink="http://www.w3.org/1999/xlink" version="1.1" id="ƒŒƒCƒ_x201E__x7C__1" x="0px" y="0px" width="213.893px" height="206px" viewBox="0 0 213.893 206" enable-background="new 0 0 213.893 206" xml:space="preserve">
<g>
	<path d="M54.945,114.444c-0.683,2.002-4.555,0.095-7.153,1.31c-3.09,1.446-4.356,6.818-5.909,4.261   c-0.412-0.678-1.129-2.665-2.607-4.812c-1.479-2.147-2.434-3.883-2.821-6.163s-1.26-4.726-1.26-4.726s1.695-0.003,3.374-0.102   c1.991-0.117,4.536-0.63,4.536-0.63s1.346,2.537,5.499,3.317c2.333,0.438,6.124,0.259,6.124,0.259s1.362,0.657,3.077,1.622   c1.783,1.002,4.168,1.489,4.168,1.489S55.773,112.017,54.945,114.444z M60.338,120.182l-1.513-1.513c0,0,1.958,0.534,3.916-0.534   C63.837,117.537,60.338,120.182,60.338,120.182z M72.811,152.564c-0.415,2.074-3.318,3.111-3.318,3.111s-1.037-1.867-0.415-2.903   c0.623-1.037,2.489-2.904,2.489-2.904S73.226,150.491,72.811,152.564z M70.669,114.306c-1.605,0.497-3.246,1.706-3.839,1.72   c-1.229,0.028,0.33-0.846,1.859-2.125c0.477-0.399,1.433-1.387,1.433-1.387s1.165,0.356,1.714,0.41   c0.549,0.053,1.705-0.132,1.992,0.201C74.116,113.459,71.535,114.038,70.669,114.306z M90.325,108.384   c0.916-0.665,1.71-1.426,1.71-1.426s0.883,0.89,2.203,1.727c1.32,0.837,2.422,1.701-0.784,1.757   c-3.206,0.056-5.059-0.606-5.059-0.606S89.409,109.049,90.325,108.384z M99.828,129.88c-1.305,4.939-3.323,5.391-5.848,6.112   c-1.338,0.382-3.422,2.031-4.203,2.774c-0.781,0.744-2.112,2.509-2.112,2.509s-4.575,1.317-6.719-1.512   c-3.692-4.87-3.939-13.182-3.939-13.182s6.023-3.98,11.021-4.991c8.818-1.785,12.885-1.136,12.885-1.136   S100.908,125.795,99.828,129.88z M112.678,131.605c-0.435,2.701-0.091,6.976-0.335,7.398c-0.243,0.422-2.368-0.524-2.563-0.917   c-0.194-0.394,0.861-3.439,0.923-7.199c0.04-2.398-0.646-7.402-0.646-7.402c0.848-0.495,2.668,0.978,3.285,1.615   C113.958,125.737,113.113,128.905,112.678,131.605z M148.768,86.228c-0.724-0.207-1.94-1.753-3.904-3.098   c-1.965-1.345-3.954-2.282-3.68-2.757c0.273-0.475,7.33,1.913,7.871,2.436C149.797,83.527,149.492,86.435,148.768,86.228z    M152.01,22.896c-1.715,1.159-3.847,2.966-5.33,6.86c-1.214,3.186-1.298,3.37-1.298,3.37s-2.106-0.833-7.045-1.854   c-5.377-1.112-8.621-0.834-9.641-1.297c-0.464-0.211,3.337-3.555,10.568-5.78c7.231-2.225,12.839-2.271,13.118-3.059   c0.278-0.788-0.302-1.415-0.927-2.04c-1.112-1.112-20.039-14.801-54.895-7.138c-26.992,5.935-39.416,27.365-39.416,27.365   s-3.715-1.608-6.107-3.547c-2.392-1.939-8.916-7.513-10.952-6.049c-2.036,1.463-2.299,4.931-1.621,11.427   c0.679,6.496,4.495,18.096,4.495,18.096s-4.32,1.926-3.932,10.503c0.12,2.661,0.992,6.242,2.516,9.857   c1.397,3.313,2.59,5.364,2.226,6.335c-0.734,1.953-6.778,6.962-8.505,8.394c-1.727,1.431-2.881-0.637-3.495-6.515   c-0.614-5.877-2.987-10.633-7.872-9.498C19.911,79.251,9.462,89.84,6.405,105.482s0.551,32.54,7.121,47.388   c8.596,19.429,21.179,25.96,22.236,27.101c1.058,1.141-1.21,6.381,2.955,10.324c4.165,3.943,11.968-2.188,14.803-4.986   c1.485-1.465,8.925-4.372,10.162-4.501c1.238-0.129,0.03,4.201,5.236,8.209c3.849,2.964,9.165,0.919,10.061,0.513   c0.896-0.406,1.022,2.519,6.571,5.134c7.956,3.75,10.47-0.66,12.262-1.473c1.06-0.48,2.669,1.715,5.517,1.926   c1.963,0.146,5.265-1.476,6.334-2.225c2.623-1.837,3.034-6.884,4.239-7.323c1.205-0.438,4.987,3.434,13.98,5.107   c17.222,3.205,30.6-1.129,42.127-12.843c15.073-15.319,17.079-20.982,20.328-34.818c3.463-14.747-4.476-20-11.115-23.684   c-6.64-3.685-15.791,3.598-16.021,2.298c-0.291-1.634,0.908-5.104-0.022-12.193c-0.689-5.252-2.729-8.159-3.509-9.641   c-0.78-1.482,0.393-2.23,0.573-3.5c0.18-1.27,13.878-2.172,13.878-2.172s2.966,0.371,6.86,5.376   c3.031,3.897,4.635,9.271,5.563,9.456c0.927,0.185,3.547-7.055,3.708-13.164c0.185-7.045-1.136-9.021-1.298-10.568   s2.596-1.483,1.633-6.795c-0.674-3.724,0.411-5.047,2.964-1.561c2.553,3.486,8.67,8.163,13.491,6.409   c4.82-1.754,5.778-8.468-0.978-18.349c-6.913-10.111-25.454-13.077-28.605-13.819c-0.542-0.127-2.04-3.152-5.933-6.674   c-4.788-4.333-7.787-5.006-7.972-5.563c-0.937-2.81,0.181-8.667,0.556-10.6c0.789-4.057,0.232-6.659-5.156-7.209   C156.46,20.811,153.216,22.082,152.01,22.896z M128.775,113.029c0,0,1.24-0.051,2.284,0.992c3.043,3.043,2.678,5.722,2.678,5.722   s-4.383-1.948-5.6-3.409C127.629,115.726,128.775,113.029,128.775,113.029z M140.773,161.759c-2.733,1.218-5.472,4.208-8.632,6.475   c-3.159,2.266-5.545,1.78-8.304,2.779c-2.759,0.999-7.144,4.389-7.878,3.813s2.788-5.56,2.426-12.237   c-0.241-4.441-2.832-8.741-2.832-8.741s1.221-1.81,1.333-2.709s-0.265-2.184-0.265-2.184s4.493,2.336,11.579,4.136   s12.642,1.016,12.642,1.016s0.813,1.23,1.819,2.216s2.614,1.456,2.614,1.456S143.506,160.542,140.773,161.759z M147.632,126.032   c-5.035,4.155-6.121,9.826-7.368,11.417c-1.248,1.591-6.644,3.685-10.584,3.166c-3.94-0.52-8.268-3.318-8.462-5.843   c-0.195-2.524,1.167-5.574,1.167-5.574s4.148,1.659,8.71,1.659c4.302,0,10.975-2.268,13.784-5.6   c2.809-3.332,3.637-7.051,3.637-7.051s-2.856,2.525-5.599,2.747s-4.953,0.268-4.622-0.659c0.331-0.926,1.927-3.794,2.265-7.663   c0.136-1.549,3.708-0.371,7.973,2.966c3.432,2.686,5.97,7.718,5.97,7.718S152.668,121.877,147.632,126.032z"/>
	
		<ellipse transform="matrix(0.4779 0.8784 -0.8784 0.4779 131.5992 5.9046)" fill="#FFFFFF" cx="60.832" cy="113.661" rx="0.646" ry="1.993"/>
	<path fill="#BCBEC0" d="M64.568,174.195c-1.996,0.355-5.059,3.401-6.386,4.732c-0.629,0.613-1.013,1.435-1.662,2.05   c-4.975,4.673,6.881-1.862,8.583-4.649C65.553,175.578,66.678,173.809,64.568,174.195z"/>
	<path fill="#FFFFFF" d="M103.075,168.61c-0.563,0.225-1.317,1.427-1.353,2.018c-0.131,1.929,0.912,4.898,0.743,7.115   c-0.426,5.185-2.218,9.545-3.528,14.128c1.672,0.754,4.512,1.845,7.586,0.771C114.367,189.897,113.48,164.377,103.075,168.61z"/>
	<path fill="#BCBEC0" d="M172.984,170.789c-12.2,12.983-23.089,17.949-42.503,18.705c8.545,1.474,19.577,0.584,32.811-8.293   c19.303-12.949,27.531-38.107,24.886-40.44C187.291,139.977,186.001,156.936,172.984,170.789z"/>
	<path fill="#FFFFFF" d="M94.284,168.277l-0.586,0.374c-1.389,1.112-1.374,4.531-2.17,6.168c-2.033,4.121-5.25,8.024-8.524,11.21   c-0.347,0.329-1.312,1.192-1.385,1.708c-0.611,3.689,2.729,4.602,4.635,5.458c1.733,0.777,3.548,2.063,6.69,1.178   C101.609,191.914,105.247,163.957,94.284,168.277z"/>
	<path fill="#DA2032" d="M142.385,163.7c-3.901,1.061-6.98,5.529-10.507,7.401c-3.999,2.107-10.056,2.688-13.7,5.412   c-0.925,0.677-3.422,3.468-3.493,4.678c-0.523,7.603,21.524,6.762,29.703,4.86c8.845-2.075,16.61-7.333,22.273-12.279   C164.204,167.123,152.404,160.953,142.385,163.7z"/>
	<path fill="#FFFFFF" d="M84.112,163.711c-7.041,1.732-25.359,17.59-14.069,23.985c1.589,0.899,3.778,1.931,6.69,1.178   c6.002-1.575,20.043-18.531,12.49-24.133C87.983,163.814,86.636,163.076,84.112,163.711z"/>
	<path fill="#FFFFFF" d="M167.837,150.093c-3.137,0.835-3.799,5.114-7.328,6.073c-2.199,0.593-3.798-0.433-5.026-0.47   c-3.351-0.117-7.662,2.283-9.208,3.948c-0.579,0.61-0.916,1.557-1.436,2.14c3.756,0.427,8.086,0.296,11.433,1.46   c5.229,1.817,8.161,6.768,12.877,8.939c2.592-1.981,9.448-8.804,10.39-11.701C181.418,154.657,173.252,148.636,167.837,150.093z"/>
	<path fill="#FFFFFF" d="M94.521,137.606c-2.374,0.668-4.359,2.801-5.458,4.636c3.304,0.476,7.417,0.837,9.945,2.401   c1.337,0.828,2.653,3.134,4.132,3.634c1.236,0.418,2.701-0.057,4.086,0.199c2.589,0.462,4.779,2.531,6.671,3.994   C117.245,141.946,105.483,134.497,94.521,137.606z"/>
	<path fill="#DA2032" d="M36.807,138.943c-5.053,0.645-4.934,5.724-6.52,9.437c-1.054,2.446-3.353,5.979-5.102,8.038   c-0.141,0.152-2.294,1.891-1.289,2.636c1.548,1.158,2.1,3.357,3.333,4.968c2.866,3.766,7.689,9.058,12.641,10.25   c5.057-5.942,8.521-10.203,17.366-13.384c3.238-1.179,8.45-2.084,8.519-5.268c-9.174,5.542-17.954-1.516-22.347-7.36   c-2.099-2.791-3.462-5.365-5.023-9.169C37.682,138.998,37.626,138.838,36.807,138.943z"/>
	<path fill="#FFFFFF" d="M151.64,125.244c-1.328,0.388-2.81,1.875-3.649,2.678c-2.036,1.944-2.904,3.771-4.027,6.417   c-0.276,0.63-1.033,2.316-1.038,2.763c-0.024,0.666,2.48-0.853,5.436-2.252c1.253-0.594,2.741-6.616,5.12-1.504   c0.844,1.83,0.593,4.686,0.323,6.27c-0.645,3.758-1.633,7.594-3.929,10.031c-1.635,1.716-8.035,2.685-4.443,5.109   c6.435,4.335,9.928-3.73,13.816-9.796c-0.589,2.996-5.156,11.815,1.452,9.86c2.242-0.67,3.094-2.739,4.183-4.418   c4.486-6.979,5.82-17.467-1.262-25.264c-0.544,2.732,1.118,7.105-0.78,8.889c-2.379-9.259-1.285-0.487-2.679,2.934   C159.815,131.751,159.72,122.803,151.64,125.244z"/>
	<path fill="#005BAA" d="M115.759,125.381c-1.901,4.625-3.447,12.939-0.259,18.478c4.584,7.965,24.315,11.054,32.287,5.228   c2.687-1.972,5.893-9.693,3.063-12.837c-4.978,1.866-7.14,3.266-9.333,4.044c-4.822,1.711-7.284,2.156-12.561,2.16   c-5.609,0-10.122-4.005-9.361-10.28c0.122-1.078,1.143-2.533,0.508-4.119C119.657,126.958,116.839,125.894,115.759,125.381z"/>
	<path fill="#DA2032" d="M170.072,120.665c-1.412,0.375-4.809,2.399-4.908,3.83c-0.18,2.352,2.869,3.941,3.605,5.927   c2.488,6.749,1.445,12.446-0.118,17.928c6.323,0.978,9.66,3.947,12.843,8.611c3.966-8.387,10.495-28.964-1.336-35.027   C177.813,120.727,174.214,119.527,170.072,120.665z"/>
	<path fill="#FED1A7" d="M102.121,120.551c0.151,6.219-0.38,10.487-1.884,14.895c1.379,0.198,3.494,0.701,4.802,1.063   c1.368,0.375,2.237,0.743,3.564,1.191c1.109-3.507,1.916-14.4-1.712-16.396C105.51,120.539,103.977,120.729,102.121,120.551z"/>
	<path fill="#414042" d="M52.985,123.181c-0.609,1.09-1.088,0.993-0.946,2.914c0.081,1.242,0.349,1.752,0.6,2.752   C55.116,126.828,58.344,123.96,52.985,123.181z"/>
	<path fill="#FFFFFF" d="M69.838,119.857c-5.12,1.316-7.204,8.218-5.693,14.354c1.793,7.347,7.28,9.354,9.723,15.246   c3.414,8.263-10.339,9.826-16.257,12.018c-3.557,1.31-7.23,3.658-10.033,5.739c-3.511,2.595-6.148,6.535-7.969,10.526   c-2.93,6.384-0.59,14.652,9.109,9.369c3.873-2.125,6.697-7.55,10.167-10.444c4.476-3.741,10.445-6.006,15.961-8.859   c2.335-1.221,4.709-3.384,7.346-4.52c4.169-1.813,5.923,0.388,9.132,0.609c4.96,0.333,8.181-1.949,10.878-3.638   c-1.71,3.091-4.629,4.236-9.511,4.746c0.132,0.514,0.396,1.64,0.536,2.133c4.92-0.514,5.187,1.198,7.341,1.422   c1.857,0.188,3.212-1.527,5.504-1.2c1.239,0.174,1.484,0.461,2.294,1.011c2.123,1.42,2.956,3.415,4.082,6.141   c5.278-4.294,4.564-16.083-0.064-21.571c-0.3-0.35-1.337-1.101-1.708-1.385c-0.892-0.679-1.515-0.849-2.636-1.289   c-4.821-1.9-2.174,2.484-2.886,5.305c-1.08-3.131-2.129-7.194-4.926-8.241c-0.011-0.106-0.021-0.203-0.032-0.31   c-5.949-4.089-17.695-1.563-21.077-7.18c-3.085-5.121-2.632-12.566-5.309-17.896C73.057,120.449,72.226,119.236,69.838,119.857z"/>
	<path fill="#FFFFFF" d="M48.937,117.35c-5.335,1.778-4.824,9.67-3.644,16.016c0,0-0.765,0.627-0.863,0.716   c-0.503-1.355-2.031-10.841-1.505-11.414c-13.811,7.365,4.415,38.248,19.15,33.65c0.303-0.1,7.286-3.085,1.437-4.215   c-3.963-0.766-7.021-1.93-9.563-4.654c0,0-0.151-2.169,1.053-1.962c0.149,0.024,1.135,0.947,1.367,1.108   c2.694,1.937,8.421,7.183,12.582,3.689c2.245-1.896,1.404-4.241-0.337-6.219c-0.189-0.215-0.805-0.316-0.993-0.522   c-1.563-1.674-3.359-1.007-5.518-1.925c-4.817-2.057-9.314-7.031-10.767-13.261c-0.717-3.033-1.225-6.859,3.066-6.575   c0.678,0.037,1.95,1.272,2.636,1.289c3.573,0.057,1.839-2.596,0.573-3.5C55.648,118.173,52.969,116,48.937,117.35z"/>
	<path fill="#FFFFFF" d="M31.226,115.446c-2.969,0.77-9.396,5.31-9.308,8.227c0.127,4.208,6.659,16.56,8.407,19.074   c1.517-3.442,6.94-5.416,6.94-5.416c0.803-1.667-0.362-5.239-0.125-7.179c0.321-2.731,3.156-6.369,3.246-7.845   C40.65,117.824,36.506,114.074,31.226,115.446z"/>
	<path fill="#005BAA" d="M146.695,101.198c-2.319,0.624,2.247,3.831,2.959,4.382C149.601,103.572,149.839,100.332,146.695,101.198z"/>
	<path fill="#005BAA" d="M136.75,98.796c0.793,2.165,2.195,8.38,3.541,9.95c1.336,1.57,4.873,2.491,6.639,3.685   c5.069,3.438,9.651,9.224,13.094,14.582c0.421-2.331,1.403-5.811,1.489-8.263c0.189-6.235,0.186-12.422-3.243-17.51   c-1.779-2.641-4.955-0.753-7.831-0.12c0.056,0.532,0.295,1.328,0.194,1.856c-0.647,0.067,0.781,5.234,0.956,6.154l-1.205,0.439   c-1.8-2.451-3.99-6.199-6.717-7.429c-1.025-0.46-2.184-0.134-3.19-0.605C138.943,100.806,138.658,99.575,136.75,98.796z"/>
	<path fill="#005BAA" d="M132.29,98.012c-4.225,0.343-5.902,7.115-3.754,11.962c0.345,0.775,2.47,1.755,3.075,2.493   c1.815,2.225,2.882,5.611,4.03,8.648C140.22,117.706,139.275,97.438,132.29,98.012z"/>
	<path fill="#FFFFFF" d="M145.596,90.68c-3.45,0.839-9.979,7.756-4.29,9.83c2.915,1.054,10.971-0.687,13.888-1.763   c0.413-0.161,1.11-0.878,1.45-1.09c4.043-2.65-2.811-1.368-4.589-2.022C149.016,94.506,150.532,89.471,145.596,90.68z"/>
	<path fill="#005BAA" d="M186.727,87.078c-0.924-1.039-2.929-0.846-4.45-0.773c-3.428,0.163-4.031,1.854-5.146,3.896   c-0.872,1.566-1.898,2.439-1.898,2.439s3.182,1.661,7.045,6.119c2.41,2.781,2.57,4.007,3.894,7.23   C188.841,103.82,190.538,91.358,186.727,87.078z"/>
	<path fill="#FED1A7" d="M93.012,90.23c-1.071,0.415-2.147,1.895-2.493,3.075c-3.281,10.877,9.164,18.128,17.567,18.492   c-1.925-3.18-4.561-5.583-6.229-8.731c-1.97-3.703-2.605-9.041-5.313-11.954C95.951,90.48,94.495,89.646,93.012,90.23z"/>
	<path fill="#FFFFFF" d="M157.162,81.654c-3.912,0.907-11.147,9.197-5.269,12.434c1.452,0.796,18.07-0.744,20.759-1.855   c0.852-0.362,1.711-1.205,2.313-1.805c1.201-1.23,0.829-1.425,0.947-2.914c-7.076,2.899-13.323,3.903-14.534-4.423   C161.039,80.78,159.499,81.098,157.162,81.654z"/>
	<path fill="#005BAA" d="M144.369,78.925c-2.796,0.742,2.977,1.927,4.28,2.055C147.621,79.846,146.696,78.291,144.369,78.925z"/>
	<path fill="#005BAA" d="M134.649,78.689c2.641,3.018,6.563,7.445,9.638,9.939c1.255,1.017,2.349,0.595,4.241,0.183   c-0.015-0.145-0.219-1.16-0.129-1.238C144.031,84.208,140.204,80.591,134.649,78.689z"/>
	<path fill="#005BAA" d="M116.777,75.239c-0.634,0.105-2.259,0.684-3.029,0.942c-10.569,3.547-12.459,15.951-17.199,8.989   c-2.48-3.642-4.578,2.11-5.458,4.635c1.279-0.573,2.986-1.348,4.608-0.794c3.596,1.217,7.124,14.218,9.981,17.721   c2.646,3.251,7.573,5.513,9.599,8.066c-21.61-3.303-42.73-6.404-57.086,10.34c-2.475,2.877-5.988,5.257-2.743,9.668   c1.106,1.517,4.02,4.525,5.84,5.019c1.387,0.363,2.556-0.228,2.655-1.528c0.095-1.427-1.218-3.528-1.445-4.853   c-1.12-6.509,1.975-13.37,6.898-14.792c4.572-1.328,5.814,2.706,6.865,5.85c6.936-3.675,17.995-7.078,27.583-5.382   c11.489,2.025,19.161,14.641,37.633,7.015c1.367-0.564,1.926-1.491,2.868-2.488c0.685-0.736,0.798-1.149,1.353-2.018   c-4.157,0.903-8.708,1.203-11.852,0.299c-4.09-1.175-6.866-5.293-11.376-4.128c0.893-0.904,2.111-1.217,3.209-2.211   c2.97-2.724,0.829-18.263-1.088-22.402c-0.391-0.839-5.686-8.124-4.243-7.688c3.833,1.144,5.812,9.146,7.332,13.307   c1.103-0.672,2.539-1.702,3.86-1.967c2.2-0.455,4.289-0.018,6.284,0.282c0.969-3.355,2.406-3.892,4.336-6.395   C144.915,87.155,126.249,73.576,116.777,75.239z"/>
	<path fill="#005BAA" d="M123.356,72.363c-0.802,0.182-1.935,1.316-2.346,1.496c3.168,0.48,6.811,3.081,9.391,3.085   c3.234-0.006,2.721-0.333,6.316,0.591c-0.981-1.911-1.891-3.702-2.779-5.652C130.995,71.859,126.99,71.505,123.356,72.363z"/>
	<path fill="#FFFFFF" d="M173.683,66.169c0.047,2.135-0.067,4.405,0.092,6.87c2.905-1.564,10.56,1.927,5.144,1.339   c-3.352-0.373-7.779,0.559-10.144,1.685c-3.167,1.484-5.731,3.227-6.159,6.897c-0.295,2.415,0.754,5.071,2.779,5.651   c4.31,1.221,8.556-2.105,11.561-3.083c3.184-1.046,7.57-0.41,10.144-1.685c4.503-2.259,1.391-10.26-1.292-12.374   C182.219,68.649,179.231,66.704,173.683,66.169z"/>
	<path fill="#DA2032" d="M23.831,80.569C13,83.166,5.885,115.161,12.655,129.269c1.021-1.827,2.583-5.021,3.799-6.672   c2.728-3.734,2.202,0.089,4.988-1.58c0.891-0.542,1.949-2.957,2.801-3.691c3.083-2.677,6.616-4.208,12.112-3.667   c-0.792-3.621-1.712-5.814-2.809-9.117c-0.372-1.119-9.138-1.741-8.953-4.17c0.073-0.958,6.986-2.891,6.794-3.875   c-0.076-0.384-0.142-0.921-0.207-1.308c-0.665-3.947-0.723-7.089-1.916-10.498C28.458,82.401,27.205,79.757,23.831,80.569z"/>
	<path fill="#FED1A7" d="M131.614,59.284c-12.313,2.068-22.809,8.236-29.366,15.263c-1.452,1.539-3.271,3.762-4.091,5.743   c-0.868,2.075-0.975,5.633,2.959,4.382c1.711-0.55,2.884-3.634,4.188-4.815c5.968-5.451,13.589-9.774,24.9-10.106   c1.198-0.037,2.514-0.262,3.712-0.388c0.372-3.361,0.672-6.667,0.822-10.093C134.115,59.277,132.651,59.107,131.614,59.284z"/>
	<path fill="#FFFFFF" d="M145.173,50.696c-9.76,1.518-15.617,29.003-1.552,27.056c-0.528-2.153-0.724-3.286-1.2-5.503l1.173-0.748   c0.372,2.063,0.975,4.286,2.128,5.407c1.643,1.607,2.002,1.11,2.719-0.909c0.488-1.41,2.208-3.563,2.299-4.931   c0.204-3.285-1.989-6.135-1.343-9.867c0.473-2.776,2.407-4.561,3.685-6.639c0.482-0.813,0.393-2.23,0.393-2.23   s-1.75-0.101-2.475,0.258c-2.327,1.113-3.181,3.694-4.4,5.776c-2.15,3.645-0.54-2.553,0.817-4.151   C148.999,52.329,148.789,50.133,145.173,50.696z"/>
	<path fill="#FFFFFF" d="M156.657,22.916c-8.913,1.684-10.751,12.527-6.008,20.329c1.239,2.04,4.341,4.042,5.042,6.353   c1.243,4.131-4.925,8.89-5.139,13.671c-0.259,5.568,2.657,8.41,4.109,12.393c-1.321-0.576-1.697-0.996-2.798-2.835   c-1.778,2.717-3.195,5.621-0.887,9.474c1.817-0.19,6.965-2.517,11.007-2.4c1.424,0.041,2.197-2.917,3.357-3.791   c1.683-1.29,4.621-1.421,6.27-2.844l0.554-0.684c1.507-4.008-1.129-10.153-2.073-13.856c0.89,1.314,1.575,3.197,2.715,5.033   c0.953,1.542,14.936,4.431,18.016,7.813c2.716,2.99,9.638,14.62,16.321,9.553c1.864-1.426,1.508-4.555,0.804-7.276   c-3.484-13.337-16.725-18.102-28.75-20.764c-4.012-0.891-8.307-0.745-11.247-2.891c-1.005-0.735-1.224-2.452-1.935-3.551   c-4.569-7.067-6.337-7.811-4.072-18.025C162.691,25.208,160.949,22.096,156.657,22.916z"/>
	<path fill="#BCBEC0" d="M6.5,115.909c0.311,17.949,3.266,34.374,19.131,53.194c4.114,4.88,6.066,7.155,11.354,9.021   c0.149-1.755,1.447-2.503-0.207-3.529c-6.688-4.148-10.16-8.946-14.151-15.721c-1.422-2.414-3.676-3.25-5.383-6.63   c-8.476-16.784-10.079-31.285-8.037-47.007c0.631-4.903,2.956-8.938,3.87-13.852C7.853,99.75,6.41,110.752,6.5,115.909z"/>
	<path fill="#414042" d="M69.722,106.923c-2.23,1.766-5.519,3.868-7.188,4.474c-0.243,0.088-0.959,0.55-1.206,0.664   c-0.872,0.402-0.528,0.483,1.066,0.018c3.406-0.994,1.503,1.148,0.958,1.804c-0.441,0.53-1.852,1.364-2.671,1.727   c-1.502,0.667-2.836-0.437-1.659-1.719c0.272-0.297-0.275-0.621-0.803-0.281c-2.12,1.363-3.234,2.919-0.375,3.952   c4.794,1.733,9.737-3.891,11.798-5.844C72.813,108.713,71.284,105.687,69.722,106.923z"/>
	<path fill="#005BAA" d="M42.721,88.665c-3.137,2.619-6.272,5.867-9.719,8.177c-2.013,1.34-3.698,2.251-5.418,3.635   c3.737,2.722,8.091,2.565,14.859,1.859c-0.643-3.6-0.125-4.975,3.449-6.159C45.031,92.826,43.784,90.888,42.721,88.665z"/>
	<path fill="#FFFFFF" d="M68.38,104.392c0.203-1.112,0.971-2.819,2.439-4.408c2.013-2.177,2.661-2.874,3.246-5.041   c0.324-1.202,0.006-2.773-0.593-3.128c-1.367-0.808-4.413-1.512-6.35-2.59c-3.367-1.875-5.312-3.216-6.648-5.029   c-1.724-2.339-1.823-4.978,0.142-5.224c2.356-0.296,7.718,3.715,9.608,4.939c-0.226-1.023-1.176-2.966-1.514-3.399   c-5.476-7.025-13.398-14.964-18.586-12.4c-1.418,0.701-2.744,2.047-3.136,3.495c-2.722,9.759,8.64,19.607,13.661,23.259   c1.23,0.895,3.35,2.473,4.058,2.926c2.261,1.444,3.653,3.655,2.038,5.931L68.38,104.392z"/>
	<path fill="#FFFFFF" d="M59.034,104.768c-0.21,0.379-0.98,0.339-5.406-1.216c-0.852,0.055,0.543,1.473,1.282,2.021   c5.578,3.998,8.683,3.964,8.756,4.048c1.349-0.671,3.34-1.216,2.733-1.217c-0.405-0.001-2.031-0.375-3.047-0.676   c-0.61-0.181-2.216-0.826-3.097-1.632C59.665,105.556,59.034,104.768,59.034,104.768z"/>
	<path fill="#FED1A7" d="M42.37,39.59c-1.053,0.322,2.717,13.561,5.72,18.843c3.526-3.53,7.104-5.396,11.138-7.644   C53.171,47.393,42.987,39.401,42.37,39.59z"/>
	<path fill="#005BAA" d="M58.926,41.06c2.576,1.394,6.354,4.003,9.361,5.032c-0.335,0.163,0.791,2.262-3.001,0.655   c-5.5-2.346-10.862-5.854-15.635-9.281c-3.713-2.666-7.765-7.661-9.582-6.844c-2.449,1.101-0.232,19.809,4.682,28.5   c0.37-0.134,1.271-0.484,1.314-0.478c-2.071-3.43-10.533-29.446-1.334-19.301c2.685,2.961,12.062,8.686,14.35,9.649   c1.304,0.546,2.504,0.375,3.724,0.833c-0.098,0.084-0.152,0.811-0.135,0.969c-4.84,1.827-9.864,4.99-12.078,8.741   c3.161,1.077,5.721,3.086,8.293,5.944c-9.699-6.505-20.728-8.313-17.308,8.98c1.713,8.658,15.17,23.37,5.085,12.77   c-4.129-4.339-1.544,3.785-0.75,5.876c0.575,1.528,1.378,2.562,2.333,3.539c0.441,0.455,0.778,0.943,1.267,1.542   c-5.289-0.535-7.2,2.239-3.893,5.181c2.119,1.884,4.421,2.533,8.112,2.563c-1.797-2.21-3.462-3.254-6.432-4.031   c0,0,0.357-1.007,1.11-1.211c0.753-0.205,2.142,0.096,2.06,0.126c2.636,0.748,4.243,1.944,6.425,2.739   c2.126,0.769,2.729,0.847,0.483-1.351c-1.751-1.714-2.793-3.44-2.25-3.408c0.407,0.025,1.994,3.12,5.77,4.737   c2.579,1.105,4.204,0.417,5.097-1.014c1.7-2.723-4.893-5.486-9.518-9.493c-4.511-3.909-13.994-13.906-10.814-23.541   c0.625-1.893,2.464-3.958,7.008-3.533c8.61,0.806,16.637,14.45,16.637,14.45c-3.412-10.898,8.997-19.5,18.757-11.48   c2.841,2.335,5.815,6.763,8.18,9.813c6.426-6.984,5.23-8.382,0.383-17.824c1.854,1.32,6.554,6.664,7.568,9.126   c3.715-2.518,7.938-6.158,12.177-8.135c4.501-2.112,9.425-3.576,14.87-4.71c1.992-0.421,3.328-2.655,5.223-3.386   c3.193-1.261,2.761-4.572,7.701-5.855c3.735-0.976,5.909,0.531,7.904,0.122c1.837-0.377-4.279-1.784-6.318-10.127   c-0.344-1.407-1.236-3.217-7.045-4.45c-12.236-2.596-21.383-2.257-35.771,1.473c-4.194,1.087-11.587,5.089-12.061,5.352   c7.284-7.305,15.942-10.195,29.477-10.565c5.071-0.139,8.359-3.841,15.759-6.118c7.231-2.225,10.197-2.41,13.72-2.967   c1.901-0.3-20.395-13.411-48.329-7.972C76.61,17.546,61,34.216,58.926,41.06z"/>
	<path fill="#FED1A7" d="M95.105,79.907c-2.36-6.266-10.393-15.841-19.17-11.654c-6.795,3.241-7.03,9.32-5.017,14.345   c1.783,4.45,4.234,7.273,4.263,10.38c0.025,2.756-1.086,4.099-3.473,6.746c-1.274,1.414-2.889,3.604-2.857,5.678   c0.042,2.648,1.904-1.167,3.162,2.194c0.557,1.489-1.121,3.459-1.015,4.333s6.133,0.934,12.036-1.554   c3.737-1.575,5.313-3.533,7.017-5.171C86.518,91.896,88.655,86.157,95.105,79.907z M80.818,94.235   c-0.311-3.328,0.795-14.719-4.849-14.585c-0.578,0.014-1.541,0.86-1.979,1.997c-0.011-0.105,0.001-1.883,0.427-2.986   c0.772-1.999,2.513-3.906,4.76-4.633C90.985,70.209,81.179,92.589,80.818,94.235z"/>
	<path fill="#FFFFFF" d="M78.918,74.828c-1.967,1.057-2.289,2.433-2.621,3.466c0.504,0.473,2.328,0.945,3.198,2.863   c2.216,4.885,1.81,8.48,1.81,8.48s1.706-2.58,2.068-5.645c0.04-0.337-1.069-0.443-1.069-0.443s0.366-0.439,0.622-0.576   c0.319-0.171,0.739-0.213,0.766-0.421c0.212-1.642-2.347-1.247-2.347-1.247s0.902-0.584,1.439-0.917   c0.419-0.26,1.241-0.082,1.292-0.689c0.251-2.992-4.429-0.774-4.429-0.774s1.03-0.968,2.229-1.512   c0.977-0.443,1.952-0.083,1.856-0.579C83.284,74.507,81.563,73.933,78.918,74.828z"/>
	<path fill="#00A651" d="M71.356,86.271c-0.329-0.789-1.022-1.82-1.022-1.82s-8.036-6.337-9.461-3.507   c-0.814,1.617,2.688,5.026,5.384,6.812c3.259,2.159,7.102,3.081,7.102,3.081s-0.233-0.705-0.642-1.565   c-0.163-0.342-0.528-0.973-0.7-1.283c-0.091-0.164-0.527,1.277-4.311-0.912c-1.605-0.929-4.306-2.932-3.269-3.686   C65.964,82.28,71.565,86.773,71.356,86.271z"/>
	<path fill="#FFFFFF" d="M66.65,85.826c0.736,0.318,1.19,0.406,1.326,0.168c0.137-0.238-0.313-0.761-1.004-1.167   c-0.691-0.407-1.654-1.045-2.017-0.383C64.824,84.684,65.731,85.428,66.65,85.826z"/>
	<path fill="#00A651" d="M60.528,104.802c0,0,2.862,0.02,3.763-0.229c0.498-0.137,1.9-0.436,1.9-0.436l1.994,0.775l0.007,0.9   c0,0-1.349-0.589-2.199-0.924c-1.049-0.413-3.45-0.263-3.643,0.076c-0.313,0.553,1.067,1.277,2.403,1.754   c1.39,0.496,3.086,0.524,3.086,0.524l-0.399,0.508c0,0-2.615,0.113-5.107-1.231C60.598,105.582,60.528,104.802,60.528,104.802z"/>
	<path fill="#FFFFFF" d="M64.513,106.234c0.52,0.184,0.94,0.15,0.938-0.075c-0.001-0.225-0.424-0.557-0.943-0.741   c-0.52-0.184-0.94-0.15-0.939,0.075C63.571,105.718,63.993,106.05,64.513,106.234z"/>
	<path fill="#FFCB05" d="M20.204,125.197c-0.646-0.949-0.772-2.538-2.662-1.822c-0.828,0.302-2.167,2.183-2.644,2.955   c-1.264,2.028-2.581,5.505-2.622,8.295c-0.106,5.347,6.919,22.186,10.866,21.05c1.337-0.394,2.214-2.71,2.8-3.836   c0.836-1.631,3.085-3.269,3.223-5.218C29.404,143.009,22.063,127.925,20.204,125.197z M24.396,145.868   c-3.121,9.314-8.098-8.002-8.098-10.983c0-1.399,1.103-2.035,2.068-1.834c0.965,0.201,4.163,5.614,5.61,8.796   C24.687,143.414,24.878,144.429,24.396,145.868z"/>
	<path fill="#FFFFFF" d="M18.087,135.274c-1.734,1.46,3.188,10.577,3.889,10.732c0.7,0.156,2.424-1.213,0.7-4.355   C21.055,138.697,19.564,134.029,18.087,135.274z"/>
	<path fill="#005BAA" d="M165.591,42.767c0,0,3.708,2.41,5.191,3.894c1.483,1.483,2.781,3.708,2.781,3.708s-3.894-0.371-4.82-1.483   C167.816,47.772,165.591,42.767,165.591,42.767z"/>
</g>
</svg>